<?xml version="1.0" encoding="UTF-8" ?>
<!DOCTYPE svg PUBLIC "-//W3C//DTD SVG 1.1//EN" "http://www.w3.org/Graphics/SVG/1.1/DTD/svg11.dtd">
<svg width="500pt" height="500pt" viewBox="0 0 500 500" version="1.1" xmlns="http://www.w3.org/2000/svg">
<g id="#ccbc97ff">
<path fill="#ccbc97" opacity="1.00" d=" M 392.38 16.97 C 393.80 17.07 395.23 17.17 396.65 17.29 C 398.24 20.51 399.29 23.93 400.47 27.31 C 400.94 30.94 399.75 34.90 401.79 38.20 C 401.09 40.14 401.08 42.13 401.95 44.02 C 399.19 47.75 402.00 52.73 399.35 56.43 C 398.15 58.90 399.49 61.96 397.93 64.34 C 396.62 66.45 398.85 68.49 399.19 70.59 C 398.05 70.02 396.91 69.45 395.78 68.89 C 395.87 73.25 393.77 77.00 391.48 80.51 C 390.22 85.87 386.88 90.32 383.85 94.80 C 381.44 97.36 379.19 100.31 378.73 103.91 C 378.49 106.10 376.38 107.31 375.15 108.95 C 375.97 110.12 376.81 111.28 377.65 112.44 C 375.95 111.41 373.98 110.79 372.37 112.36 C 372.25 113.53 372.13 114.69 372.03 115.87 C 373.76 114.84 375.63 114.14 377.67 114.26 C 377.55 116.56 376.10 118.54 373.93 119.34 C 371.57 119.26 369.58 117.70 367.34 117.08 C 366.55 119.93 368.10 122.31 368.86 124.85 C 367.38 126.78 365.42 128.27 363.84 130.10 C 363.53 132.00 365.14 133.65 365.66 135.43 C 362.87 135.35 359.90 136.34 357.27 135.11 C 355.48 134.21 352.93 133.81 351.52 135.56 C 347.40 139.84 342.49 143.23 337.62 146.59 C 330.20 153.21 320.51 156.28 311.64 160.37 C 308.90 160.69 306.04 160.45 303.48 161.68 C 303.63 165.54 303.57 169.46 304.74 173.19 C 307.45 174.22 309.94 175.92 311.56 178.36 C 312.09 185.53 311.42 192.73 311.78 199.90 C 312.66 203.27 317.07 203.56 319.30 201.41 C 320.67 199.77 323.46 199.97 324.14 197.76 C 322.44 197.62 320.73 197.55 319.03 197.50 C 318.41 195.51 318.61 192.88 320.73 191.89 C 325.83 189.52 330.14 185.83 334.10 181.88 C 333.33 180.07 331.60 178.17 332.55 176.09 C 335.02 171.10 340.54 169.06 344.12 165.08 C 348.70 160.37 353.36 155.73 357.86 150.95 C 360.07 146.32 364.46 143.44 367.78 139.69 C 368.86 138.42 370.34 137.65 371.82 136.95 C 372.00 136.38 372.36 135.22 372.54 134.64 C 375.85 134.01 377.64 130.86 380.48 129.40 C 384.61 127.52 388.80 125.76 392.82 123.65 C 400.96 119.01 410.55 120.52 419.50 120.62 C 430.15 122.73 441.26 125.59 450.00 132.36 C 451.76 132.36 453.52 132.38 455.28 132.41 C 455.52 133.75 455.24 135.62 456.95 136.08 C 460.24 137.52 463.46 139.56 467.16 139.62 C 468.01 138.27 468.92 136.97 469.85 135.67 C 470.62 135.70 472.16 135.75 472.93 135.77 C 472.74 140.30 474.02 145.40 471.18 149.35 C 470.35 151.07 469.38 152.75 467.86 153.96 C 466.33 155.22 465.14 156.92 465.37 159.00 C 465.43 167.61 464.35 176.44 467.11 184.78 C 465.53 184.71 463.96 184.63 462.38 184.56 C 462.24 187.09 462.11 189.63 462.02 192.17 C 460.62 192.18 459.24 192.20 457.86 192.23 C 457.86 187.99 457.79 183.73 456.97 179.55 C 455.31 181.42 453.84 183.47 452.94 185.82 C 452.29 187.97 451.15 189.88 449.86 191.70 C 445.35 201.93 448.50 213.32 447.15 224.04 C 446.52 226.22 445.94 228.80 443.58 229.72 C 440.68 231.07 439.93 234.88 436.82 235.89 C 434.40 236.61 431.81 236.14 429.33 236.22 C 429.33 240.29 426.42 243.36 423.07 245.24 C 417.82 247.61 411.98 247.99 406.30 247.69 C 405.03 251.26 405.44 255.15 405.82 258.84 C 407.64 261.13 409.72 263.37 410.42 266.32 C 411.50 270.89 414.47 275.11 413.49 280.00 C 412.53 283.55 411.82 287.26 412.65 290.94 C 415.34 294.79 420.35 295.09 424.27 297.00 C 431.84 299.13 440.08 300.62 446.45 305.56 C 448.63 310.24 454.14 311.45 458.87 311.53 C 461.38 311.53 463.17 313.62 465.25 314.76 C 465.78 317.57 466.57 320.32 467.34 323.07 C 467.91 328.75 467.48 334.46 465.95 339.96 C 464.82 346.29 458.92 351.18 459.29 357.82 C 462.34 365.81 459.30 374.65 461.23 382.86 C 463.81 391.01 462.43 399.66 462.51 408.04 C 462.72 411.16 461.19 413.96 460.27 416.84 C 458.87 416.78 457.50 416.60 456.15 416.29 C 451.58 411.49 448.89 405.31 445.12 399.93 C 442.96 395.47 441.54 390.67 441.30 385.70 C 439.06 386.63 437.71 388.63 436.77 390.78 C 435.86 392.49 435.19 394.34 434.03 395.90 C 428.35 397.88 423.72 401.77 418.54 404.68 C 417.17 405.66 415.40 405.53 413.84 405.23 C 413.31 399.78 413.76 394.18 415.20 388.88 C 415.68 383.12 418.19 377.49 422.67 373.73 C 426.21 372.79 430.16 373.02 433.18 375.28 C 435.62 373.44 433.09 369.90 434.99 367.68 C 436.64 363.18 443.43 361.49 442.44 356.01 C 440.62 347.45 441.68 338.48 438.87 330.12 C 434.54 330.40 430.39 331.89 426.02 331.58 C 418.39 332.94 410.69 333.75 402.93 333.39 C 399.00 332.92 395.62 335.13 392.04 336.28 C 388.80 336.66 385.52 336.42 382.27 336.38 C 379.39 340.86 374.81 345.53 369.01 344.73 C 361.01 343.67 352.56 346.41 344.89 343.35 C 343.38 343.25 341.87 343.20 340.37 343.17 C 340.78 342.07 341.21 340.97 341.65 339.88 C 339.04 341.19 336.21 341.62 333.32 341.61 C 329.24 342.19 327.29 346.21 326.86 349.94 C 326.47 356.02 326.14 362.46 329.00 368.06 C 331.51 371.53 335.82 372.67 339.47 374.54 C 343.94 375.36 348.59 374.09 353.05 375.10 C 354.39 377.05 353.49 379.77 353.51 382.03 C 350.58 385.97 346.41 390.45 341.00 389.70 C 336.25 390.09 332.37 386.69 328.24 385.25 C 323.34 387.72 318.31 393.38 312.41 390.52 C 312.24 386.82 312.06 383.09 310.78 379.58 C 310.26 373.72 308.44 368.06 306.53 362.52 C 304.88 359.93 302.39 355.72 298.79 357.83 C 294.00 360.66 288.38 359.20 283.17 360.24 C 277.59 361.43 271.86 361.93 266.57 364.17 C 265.39 368.61 270.11 371.66 269.81 375.98 C 270.40 380.90 266.78 384.67 264.37 388.53 C 262.17 392.48 258.51 395.23 255.52 398.52 C 249.57 404.68 246.56 412.86 242.28 420.12 C 237.58 426.82 233.54 433.94 229.07 440.79 C 226.03 447.35 226.11 454.82 226.87 461.85 C 231.14 466.41 238.07 467.05 242.27 471.72 C 244.04 473.69 246.57 475.31 247.18 478.04 C 247.56 479.95 247.42 481.91 247.35 483.85 C 239.31 484.03 231.23 484.20 223.19 483.77 C 220.45 481.69 218.52 478.46 215.47 476.60 C 210.20 473.30 206.39 468.32 201.80 464.21 C 199.15 462.09 198.05 458.71 195.52 456.49 C 191.05 452.25 187.27 446.79 181.12 444.87 C 177.58 443.01 173.89 439.33 174.66 434.96 C 174.63 431.94 176.32 429.33 177.60 426.72 C 183.33 415.63 188.42 404.11 191.50 391.99 C 190.73 389.04 188.12 386.91 186.56 384.32 C 181.80 378.76 177.33 372.92 173.50 366.68 C 171.71 362.52 168.34 359.32 166.74 355.06 C 158.05 341.40 152.55 325.60 151.23 309.45 C 149.22 312.02 146.91 314.59 146.23 317.90 C 143.77 323.95 141.26 330.00 138.99 336.14 C 136.57 341.33 133.00 345.89 129.08 350.04 C 124.60 356.16 118.80 361.12 113.50 366.50 C 110.16 369.84 107.23 373.69 103.07 376.08 C 99.10 379.79 94.98 383.46 91.83 387.93 C 87.64 393.35 81.32 397.08 78.46 403.50 C 75.78 407.94 75.66 413.27 74.01 418.08 C 73.17 419.50 71.56 419.73 70.07 419.92 C 69.12 416.97 69.60 413.86 69.37 410.83 C 65.34 416.50 63.32 424.61 55.92 426.88 C 54.57 425.63 53.26 424.34 51.98 423.02 C 50.11 425.05 48.08 427.60 45.00 427.36 C 42.65 427.85 41.06 425.91 39.49 424.54 C 39.46 422.75 39.42 420.97 39.39 419.18 C 37.29 419.43 35.18 419.50 33.08 419.68 C 29.06 421.34 25.50 424.69 20.93 424.67 C 17.56 423.43 14.39 421.63 10.77 421.16 C 7.24 419.04 7.80 414.67 8.14 411.17 C 11.81 405.54 18.24 402.65 22.58 397.61 C 29.68 391.08 36.84 384.53 43.08 377.15 C 45.55 373.00 49.53 370.02 51.79 365.73 C 55.25 361.06 58.41 356.18 61.41 351.22 C 65.51 342.69 70.31 334.48 73.66 325.60 C 76.74 318.79 79.48 311.84 83.32 305.43 C 86.60 298.47 91.56 291.93 98.58 288.43 C 105.85 284.65 114.03 283.26 121.95 281.58 C 127.99 280.72 133.72 282.83 139.60 283.70 C 142.96 284.65 146.06 286.31 149.30 287.58 C 152.10 287.82 154.93 287.79 157.74 287.71 C 161.18 285.56 163.44 282.02 165.73 278.76 C 170.83 275.23 175.01 270.41 180.65 267.67 C 188.30 264.08 195.55 259.67 203.38 256.47 C 207.69 255.15 211.06 251.88 215.41 250.64 C 224.40 246.96 234.86 245.11 241.64 237.58 C 242.13 230.77 240.71 223.91 241.73 217.15 C 243.92 215.38 247.12 215.52 249.71 214.50 C 251.16 209.50 255.33 205.90 256.80 200.96 C 256.50 196.48 250.99 197.79 247.94 197.42 C 245.00 197.72 242.57 195.64 241.66 192.97 C 241.31 184.63 241.31 176.22 243.23 168.05 C 243.02 163.26 244.85 158.84 245.40 154.16 C 247.54 145.92 249.40 137.55 252.70 129.67 C 253.59 128.18 254.93 126.85 254.99 125.01 C 255.73 117.16 254.87 109.23 255.43 101.37 C 256.25 98.02 256.60 94.61 256.76 91.17 C 258.74 85.06 262.37 79.14 268.10 75.89 C 274.06 75.24 280.08 75.78 286.07 75.66 C 289.05 79.88 294.15 81.72 297.46 85.60 C 301.56 90.79 305.80 96.31 306.86 103.03 C 307.25 105.22 305.47 106.86 304.56 108.66 C 301.64 109.18 299.19 107.91 297.44 105.62 C 296.41 105.67 295.38 105.73 294.35 105.79 C 295.66 108.49 298.59 110.67 298.39 113.88 C 297.50 115.08 296.23 115.90 295.10 116.85 C 296.53 119.97 298.18 125.13 294.37 127.19 C 291.13 127.23 288.02 129.53 288.39 133.05 C 291.36 135.30 295.03 136.59 297.79 139.22 C 302.06 135.91 307.81 139.03 312.30 136.44 C 318.69 133.74 324.44 129.82 330.44 126.40 C 334.73 123.07 340.18 121.67 344.29 118.08 C 349.85 114.50 356.51 116.09 362.72 115.51 C 363.03 112.01 356.91 110.66 359.25 107.34 C 361.44 107.48 363.26 108.87 365.31 109.51 C 365.44 107.67 365.51 105.83 365.61 103.99 C 366.59 104.62 367.54 105.28 368.52 105.93 C 368.89 104.28 369.40 102.67 370.11 101.14 C 369.79 100.63 369.17 99.62 368.86 99.11 C 369.49 99.64 370.74 100.70 371.37 101.23 C 371.92 97.33 374.01 94.10 377.13 91.76 C 376.77 89.04 378.13 86.90 379.98 85.09 C 382.51 80.60 384.53 75.82 387.02 71.31 C 387.01 65.27 391.34 60.20 390.67 54.09 C 392.37 51.32 392.51 48.15 392.35 45.00 C 392.14 42.84 394.16 41.22 393.80 39.03 C 393.34 31.68 394.93 24.05 392.38 16.97 M 261.20 125.65 C 262.61 125.57 264.03 125.46 265.45 125.34 C 265.45 122.97 265.30 120.61 265.09 118.26 C 263.62 120.63 261.69 122.82 261.20 125.65 M 304.27 186.68 C 303.38 187.64 303.37 189.45 304.26 190.42 C 305.80 190.40 305.80 186.71 304.27 186.68 M 302.60 205.39 C 302.42 206.86 302.23 208.33 302.07 209.81 C 303.53 208.96 305.02 208.19 306.50 207.39 C 307.61 205.06 303.92 205.90 302.60 205.39 M 314.86 209.23 C 315.23 211.38 316.96 212.49 318.92 213.06 C 318.94 211.77 318.96 210.47 318.98 209.18 C 317.60 209.18 316.23 209.20 314.86 209.23 M 416.85 237.13 C 412.87 238.15 408.30 236.08 404.68 238.34 C 405.02 239.17 405.68 240.81 406.01 241.64 C 408.10 241.51 410.11 240.95 412.03 240.12 C 414.25 239.56 418.69 241.12 419.32 238.17 C 420.03 237.94 421.46 237.49 422.17 237.26 C 423.44 237.15 424.72 237.05 425.99 236.93 C 425.99 235.22 425.95 233.52 425.91 231.81 C 422.25 232.31 419.36 234.60 416.85 237.13 M 208.78 416.52 C 207.53 420.29 205.39 424.32 207.06 428.31 C 210.05 424.14 210.52 418.84 211.80 414.01 C 210.68 414.69 209.12 415.06 208.78 416.52 Z" />
</g>
<g id="#645d4f8f">
<path fill="#645d4f" opacity="0.56" d=" M 380.34 126.59 C 384.54 125.80 388.58 124.29 392.82 123.65 C 388.80 125.76 384.61 127.52 380.48 129.40 C 380.44 128.69 380.37 127.29 380.34 126.59 Z" />
</g>
<g id="#847b65ae">
<path fill="#847b65" opacity="0.68" d=" M 465.37 159.00 C 465.14 156.92 466.33 155.22 467.86 153.96 C 465.62 160.19 466.88 166.90 466.17 173.35 C 465.41 177.59 468.31 181.33 467.77 185.59 C 466.28 185.88 464.79 186.16 463.30 186.42 C 462.93 188.53 462.68 190.65 462.53 192.79 C 460.79 192.80 459.05 192.79 457.32 192.79 C 457.30 190.01 457.30 187.24 457.20 184.46 C 455.76 184.89 454.35 185.35 452.94 185.82 C 453.84 183.47 455.31 181.42 456.97 179.55 C 457.79 183.73 457.86 187.99 457.86 192.23 C 459.24 192.20 460.62 192.18 462.02 192.17 C 462.11 189.63 462.24 187.09 462.38 184.56 C 463.96 184.63 465.53 184.71 467.11 184.78 C 464.35 176.44 465.43 167.61 465.37 159.00 Z" />
</g>
<g id="#7a73669c">
<path fill="#7a7366" opacity="0.61" d=" M 304.27 186.68 C 305.80 186.71 305.80 190.40 304.26 190.42 C 303.37 189.45 303.38 187.64 304.27 186.68 Z" />
</g>
<g id="#9b8f74c8">
<path fill="#9b8f74" opacity="0.78" d=" M 314.86 209.23 C 316.23 209.20 317.60 209.18 318.98 209.18 C 318.96 210.47 318.94 211.77 318.92 213.06 C 316.96 212.49 315.23 211.38 314.86 209.23 Z" />
</g>
<g id="#7a725e9b">
<path fill="#7a725e" opacity="0.61" d=" M 416.85 237.13 C 419.36 234.60 422.25 232.31 425.91 231.81 C 425.95 233.52 425.99 235.22 425.99 236.93 C 424.72 237.05 423.44 237.15 422.17 237.26 C 423.85 236.42 425.04 234.98 425.79 233.29 C 423.13 234.16 418.81 234.35 419.32 238.17 C 418.69 241.12 414.25 239.56 412.03 240.12 C 414.03 239.35 416.14 238.89 418.22 238.37 C 413.71 238.22 409.19 238.23 404.68 238.34 C 408.30 236.08 412.87 238.15 416.85 237.13 Z" />
</g>
<g id="#68615285">
<path fill="#686152" opacity="0.52" d=" M 436.77 390.78 C 437.71 388.63 439.06 386.63 441.30 385.70 C 441.54 390.67 442.96 395.47 445.12 399.93 C 442.26 396.97 440.81 392.99 440.01 389.03 C 438.93 389.61 437.85 390.20 436.77 390.78 Z" />
</g>
<g id="#897f68b4">
<path fill="#897f68" opacity="0.71" d=" M 208.78 416.52 C 209.12 415.06 210.68 414.69 211.80 414.01 C 210.52 418.84 210.05 424.14 207.06 428.31 C 205.39 424.32 207.53 420.29 208.78 416.52 Z" />
</g>
</svg>
